<svg height="93" viewBox="0 0 95 93" width="95" xmlns="http://www.w3.org/2000/svg"><g fill="none" fill-rule="evenodd" opacity=".4"><path d="m7.5 22c4.1421356 0 7.5 3.3578644 7.5 7.5v7.5h-15v-7.5c0-4.1421356 3.35786438-7.5 7.5-7.5z" fill="#617c8e"/><path d="m71.9979514 78.3103448h8.0020486v14.6896552h-57.2162162c-4.3585716 0-8.4837838-3.5076174-8.4837838-7.8344828v-55.3310344c0-4.3268654-2.9414285-7.8344828-7.3-7.8344828h56.5141676c4.3585715 0 8.4837838 3.5076174 8.4837838 7.8344828z" fill="#9db3c1"/><g fill="#617c8e"><path d="m27 41h32c.5522847 0 1 .4477153 1 1v3c0 .5522847-.4477153 1-1 1h-32c-.5522847 0-1-.4477153-1-1v-3c0-.5522847.4477153-1 1-1z"/><path d="m27 53h32c.5522847 0 1 .4477153 1 1v3c0 .5522847-.4477153 1-1 1h-32c-.5522847 0-1-.4477153-1-1v-3c0-.5522847.4477153-1 1-1z"/><path d="m27 68h15c.5522847 0 1 .4477153 1 1v3c0 .5522847-.4477153 1-1 1h-15c-.5522847 0-1-.4477153-1-1v-3c0-.5522847.4477153-1 1-1z"/><path d="m21 92.9835977c.1652618.0108776.3319857.0164023.5.0164023 4.1421356 0 7.5-3.3578644 7.5-7.5v-7.5h43 15v7.5c0 3.9741213-3.0909841 7.2263047-7 7.4835977v.0164023h-59z"/><path d="m64 0h3c.5522847 0 1 .44771525 1 1v13c0 .5522847-.4477153 1-1 1h-3c-.5522847 0-1-.4477153-1-1v-13c0-.55228475.4477153-1 1-1z"/><path d="m86 17h3c.5522847 0 1 .4477153 1 1v13c0 .5522847-.4477153 1-1 1h-3c-.5522847 0-1-.4477153-1-1v-13c0-.5522847.4477153-1 1-1z" transform="matrix(0 1 -1 0 112 -63)"/><path d="m78 5h3c.5522847 0 1 .44771525 1 1v13c0 .5522847-.4477153 1-1 1h-3c-.5522847 0-1-.4477153-1-1v-13c0-.55228475.4477153-1 1-1z" transform="matrix(.70710678 .70710678 -.70710678 .70710678 32.123846 -52.553824)"/></g></g></svg>