<?xml version="1.0" encoding="UTF-8"?>
<svg width="111px" height="14px" viewBox="0 0 111 14" version="1.1" xmlns="http://www.w3.org/2000/svg" xmlns:xlink="http://www.w3.org/1999/xlink">
    <!-- Generator: Sketch 55.2 (78181) - https://sketchapp.com -->
    <title>形状结合</title>
    <desc>Created with Sketch.</desc>
    <g id="资产详情&amp;&amp;订单详情&amp;登录页面优化" stroke="none" stroke-width="1" fill="none" fill-rule="evenodd">
        <g id="登录页面1" transform="translate(-78.000000, -128.000000)" fill="#222222" fill-rule="nonzero">
            <path d="M104.683369,134.555556 C105.113075,134.748149 105.496736,135 105.834362,135.311111 C106.125948,135.577779 106.390673,135.918516 106.628546,136.333333 C106.866419,136.74815 106.985354,137.266664 106.985354,137.888889 C106.985354,138.451855 106.870256,138.981479 106.640056,139.477778 C106.409857,139.974077 106.083745,140.407406 105.661713,140.777778 C105.23968,141.14815 104.740922,141.444443 104.165423,141.666667 C103.589924,141.888889 102.956885,142 102.266286,142 L96.4080698,142 C96.0201234,142 95.7056307,141.685507 95.7056307,141.297561 L95.7056307,128.702439 C95.7056307,128.314493 96.0201234,128 96.4080698,128 L101.920988,128 C102.580894,128 103.187077,128.103703 103.739556,128.311111 C104.292035,128.51852 104.763937,128.799998 105.155276,129.155556 C105.546616,129.511113 105.853544,129.92222 106.07607,130.388889 C106.298596,130.855558 106.409858,131.355553 106.409858,131.888889 C106.409858,132.362965 106.317779,132.770369 106.13362,133.111111 C105.94946,133.451854 105.749957,133.725925 105.535104,133.933333 C105.274211,134.185186 104.990302,134.392592 104.683369,134.555556 Z M99.1523602,133.712 L101.458289,133.712 C101.909481,133.712 102.285468,133.566401 102.586262,133.2752 C102.887056,132.983999 103.037451,132.644269 103.037451,132.256 C103.037451,131.867731 102.887056,131.528001 102.586262,131.2368 C102.285468,130.945599 101.909481,130.8 101.458289,130.8 L99.1523602,130.8 C99.0553736,130.8 98.9767504,130.878623 98.9767504,130.97561 L98.9767504,133.53639 C98.9767504,133.633377 99.0553736,133.712 99.1523602,133.712 Z M101.796681,139.2 C102.308031,139.2 102.736656,139.032002 103.08257,138.696 C103.428483,138.359998 103.601437,137.968002 103.601437,137.52 C103.601437,137.071998 103.428483,136.680002 103.08257,136.344 C102.736656,136.007998 102.308031,135.84 101.796681,135.84 L99.1523602,135.84 C99.0553736,135.84 98.9767504,135.918623 98.9767504,136.01561 L98.9767504,139.02439 C98.9767504,139.121377 99.0553736,139.2 99.1523602,139.2 L101.796681,139.2 Z M114.952108,142 L113.118254,142 C112.730307,142 112.415814,141.685507 112.415814,141.297561 L112.415814,130.8 L109.097758,130.8 C108.709812,130.8 108.395319,130.485507 108.395319,130.097561 L108.395319,128.702439 C108.395319,128.314493 108.709812,128 109.097758,128 L118.972603,128 C119.360549,128 119.675042,128.314493 119.675042,128.702439 L119.675042,130.097561 C119.675042,130.485507 119.360549,130.8 118.972603,130.8 L115.654547,130.8 L115.654547,141.297561 C115.654547,141.685507 115.340054,142 114.952108,142 Z M128.005588,138.9375 C128.89857,138.9375 129.601783,138.72969 130.115248,138.314063 C130.388944,138.092518 130.66026,137.738122 130.929196,137.250875 C131.060763,137.012481 131.318256,136.871607 131.589967,136.889356 L133.544097,137.017009 C133.931207,137.042315 134.224523,137.37663 134.199235,137.763741 C134.19438,137.838064 134.177735,137.911142 134.149924,137.980236 C133.984629,138.390895 133.826654,138.717274 133.675998,138.959375 C133.303922,139.557295 132.842555,140.078644 132.291882,140.523437 C131.74121,140.968231 131.104969,141.325519 130.383142,141.595312 C129.661314,141.865106 128.868804,142 128.005588,142 C127.053073,142 126.156383,141.821356 125.315491,141.464062 C124.474599,141.106769 123.74162,140.610941 123.116533,139.976562 C122.491445,139.342184 121.996591,138.602088 121.631957,137.75625 C121.267322,136.910412 121.085008,135.991672 121.085008,135 C121.085008,134.022912 121.267322,133.107817 121.631957,132.254687 C121.996591,131.401558 122.491445,130.657816 123.116533,130.023437 C123.74162,129.389059 124.474599,128.893231 125.315491,128.535937 C126.156383,128.178644 127.053073,128 128.005588,128 C128.839038,128 129.609224,128.134894 130.316168,128.404687 C131.023113,128.674481 131.648191,129.031769 132.191422,129.476562 C132.734653,129.921356 133.1923,130.442705 133.564376,131.040625 C133.715033,131.282728 133.873009,131.60911 134.038305,132.019773 C134.183147,132.379658 134.008835,132.788826 133.648956,132.933681 C133.579862,132.961492 133.506784,132.978137 133.43246,132.982992 L131.513568,133.108343 C131.225875,133.127187 130.955905,132.968289 130.832683,132.707639 C130.76331,132.560896 130.69904,132.442724 130.639873,132.353125 C130.476159,132.105207 130.2678,131.886459 130.014788,131.696875 C129.761777,131.507291 129.467841,131.354167 129.132972,131.2375 C128.798104,131.120833 128.422313,131.0625 128.005588,131.0625 C127.499564,131.0625 127.023314,131.160937 126.576823,131.357812 C126.130331,131.554688 125.739657,131.828123 125.404789,132.178125 C125.06992,132.528127 124.80575,132.943748 124.612271,133.425 C124.418791,133.906252 124.322053,134.431247 124.322053,135 C124.322053,135.568753 124.418791,136.093748 124.612271,136.575 C124.80575,137.056252 125.06992,137.471873 125.404789,137.821875 C125.739657,138.171877 126.130331,138.445312 126.576823,138.642187 C127.023314,138.839063 127.499564,138.9375 128.005588,138.9375 Z M85.0744159,128 L91.4413902,128 C91.8320994,128 92.1488318,128.313401 92.1488318,128.7 L92.1488318,141.3 C92.1488318,141.686599 91.8320994,142 91.4413902,142 L85.0744159,142 C81.1673239,142 78,138.865993 78,135 C78,131.134007 81.1673239,128 85.0744159,128 Z M88.4360141,131.5 L85.0744159,131.5 C83.1208699,131.5 81.537208,133.067003 81.537208,135 C81.537208,136.932997 83.1208699,138.5 85.0744159,138.5 L87.592868,138.5 L88.3436509,138.964285 C88.4261391,139.015296 88.5343613,138.989778 88.5853721,138.90729 C88.6025334,138.879539 88.6116239,138.847556 88.6116239,138.814927 L88.6116239,131.67561 C88.6116239,131.578623 88.5330007,131.5 88.4360141,131.5 Z M137.012658,140.6 C137.012658,140.226665 137.153163,139.900001 137.434177,139.62 C137.715191,139.339999 138.043036,139.2 138.417722,139.2 C138.792407,139.2 139.120252,139.339999 139.401266,139.62 C139.68228,139.900001 139.822785,140.226665 139.822785,140.6 C139.822785,140.973335 139.68228,141.299999 139.401266,141.58 C139.120252,141.860001 138.792407,142 138.417722,142 C138.043036,142 137.715191,141.860001 137.434177,141.58 C137.153163,141.299999 137.012658,140.973335 137.012658,140.6 Z M166.569168,128 C167.392138,128 168.144843,128.135483 168.827306,128.406452 C169.509768,128.677421 170.096878,129.068815 170.588653,129.580645 C171.080427,130.092476 171.461798,130.709674 171.732776,131.432258 C172.003754,132.154842 172.139241,132.967737 172.139241,133.870968 L172.139241,141.247312 C172.139241,141.66301 171.802251,142 171.386552,142 L169.429451,142 C169.013753,142 168.676763,141.66301 168.676763,141.247312 L168.676763,134.322581 C168.676763,133.41935 168.410807,132.691759 167.878888,132.139785 C167.346968,131.587811 166.659498,131.311828 165.816456,131.311828 C164.973414,131.311828 164.285943,131.587811 163.754024,132.139785 C163.222104,132.691759 162.956148,133.41935 162.956148,134.322581 L162.956148,141.247312 C162.956148,141.66301 162.619158,142 162.20346,142 L160.246359,142 C159.830661,142 159.493671,141.66301 159.493671,141.247312 L159.493671,128.903226 C159.493671,128.487528 159.830661,128.150538 160.246359,128.150538 L161.902375,128.150538 C162.318073,128.150538 162.655063,128.487528 162.655063,128.903226 L162.655063,129.505376 C162.996295,129.224371 163.367629,128.973478 163.769078,128.752688 C164.110309,128.572042 164.51677,128.401434 164.988472,128.24086 C165.460174,128.080286 165.987068,128 166.569168,128 Z M187.951996,138.807468 C187.855418,138.969121 187.762418,139.109894 187.672996,139.229787 C187.287902,139.746102 186.819553,140.207799 186.267932,140.614894 C185.716312,141.021988 185.091846,141.354609 184.394515,141.612766 C183.697184,141.870923 182.94262,142 182.130802,142 C181.152456,142 180.231369,141.816314 179.367511,141.448936 C178.503653,141.081558 177.743885,140.580145 177.088186,139.944681 C176.432486,139.309217 175.912098,138.569508 175.527004,137.725532 C175.141911,136.881556 174.949367,135.973055 174.949367,135 C174.949367,134.026945 175.141911,133.118444 175.527004,132.274468 C175.912098,131.430492 176.432486,130.690783 177.088186,130.055319 C177.743885,129.419855 178.503653,128.918442 179.367511,128.551064 C180.231369,128.183686 181.152456,128 182.130802,128 C183.067515,128 183.952176,128.168793 184.78481,128.506383 C185.617444,128.843973 186.345988,129.320564 186.970464,129.93617 C187.59494,130.551776 188.089309,131.291485 188.453586,132.155319 C188.817864,133.019153 189,133.967371 189,135 C189,135.158866 188.989592,135.312765 188.968776,135.461702 C188.947961,135.610639 188.927145,135.754609 188.906329,135.893617 C188.872832,136.149269 188.654965,136.340452 188.397127,136.340426 L178.852321,136.340426 C179.018848,137.015606 179.372712,137.581558 179.913924,138.038298 C180.455136,138.495038 181.194093,138.723404 182.130802,138.723404 C182.609566,138.723404 183.010266,138.673759 183.332911,138.574468 C183.655557,138.475177 183.931363,138.356029 184.160338,138.217021 C184.278966,138.141574 184.418721,138.029176 184.579603,137.879828 C184.717303,137.751912 184.8983,137.680851 185.086246,137.680851 L187.312704,137.680851 C187.723987,137.680839 188.057398,138.014249 188.057398,138.425532 C188.057398,138.560026 188.020974,138.69201 187.951996,138.807468 Z M182.130802,131.276596 C181.194088,131.276596 180.429117,131.534749 179.835865,132.051064 C179.242613,132.567378 178.862729,133.202833 178.696203,133.957447 L185.565401,133.957447 C185.398874,133.202833 185.01899,132.567378 184.425738,132.051064 C183.832486,131.534749 183.067515,131.276596 182.130802,131.276596 Z M156.683544,135 C156.683544,135.973055 156.495186,136.881556 156.118465,137.725532 C155.741743,138.569508 155.232667,139.309217 154.591222,139.944681 C153.949777,140.580145 153.206526,141.081558 152.361447,141.448936 C151.516369,141.816314 150.615305,142 149.658228,142 C148.701151,142 147.800087,141.816314 146.955008,141.448936 C146.10993,141.081558 145.366679,140.580145 144.725234,139.944681 C144.083789,139.309217 143.574713,138.569508 143.197991,137.725532 C142.821269,136.881556 142.632911,135.973055 142.632911,135 C142.632911,134.026945 142.821269,133.118444 143.197991,132.274468 C143.574713,131.430492 144.083789,130.690783 144.725234,130.055319 C145.366679,129.419855 146.10993,128.918442 146.955008,128.551064 C147.800087,128.183686 148.701151,128 149.658228,128 C150.615305,128 151.516369,128.183686 152.361447,128.551064 C153.206526,128.918442 153.949777,129.419855 154.591222,130.055319 C155.232667,130.690783 155.741743,131.430492 156.118465,132.274468 C156.495186,133.118444 156.683544,134.026945 156.683544,135 Z M145.755274,135 C145.755274,136.182228 146.128597,137.125922 146.875252,137.831111 C147.621908,138.5363 148.549557,138.888889 149.658228,138.888889 C150.766898,138.888889 151.694551,138.5363 152.441203,137.831111 C153.187859,137.125922 153.561181,136.182228 153.561181,135 C153.561181,133.817772 153.187859,132.874078 152.441203,132.168889 C151.694551,131.4637 150.766898,131.111111 149.658228,131.111111 C148.549557,131.111111 147.621908,131.4637 146.875252,132.168889 C146.128597,132.874078 145.755274,133.817772 145.755274,135 Z" id="形状结合"></path>
        </g>
    </g>
</svg>