<?xml version="1.0" encoding="UTF-8"?>
<svg width="68px" height="60px" viewBox="0 0 68 60" version="1.1" xmlns="http://www.w3.org/2000/svg" xmlns:xlink="http://www.w3.org/1999/xlink">
    <!-- Generator: Sketch 54.1 (76490) - https://sketchapp.com -->
    <title>空icon</title>
    <desc>Created with Sketch.</desc>
    <g id="Page-1" stroke="none" stroke-width="1" fill="none" fill-rule="evenodd">
        <g id="提币审核" transform="translate(-155.000000, -214.000000)">
            <g id="空icon" transform="translate(155.000000, 214.000000)">
                <path d="M9,8 L27,8 L45.9098528,8 L45.9098528,26 L52,26 C53.1045695,26 54,26.8954305 54,28 L54,60 L9,60 C4.02943725,60 6.08718376e-16,55.9705627 0,51 L0,17 C-6.08718376e-16,12.0294373 4.02943725,8 9,8 Z" id="矩形" fill="#E9EFF2"></path>
                <path d="M9,8 L44,8 C45.1045695,8 46,8.8954305 46,10 L46,26 L9,26 C4.02943725,26 6.08718376e-16,21.9705627 0,17 L0,17 C-6.08718376e-16,12.0294373 4.02943725,8 9,8 Z" id="矩形" fill="#D2DEE6"></path>
                <path d="M36.5857864,14.5857864 L36.5857864,21.5857864 L18.5857864,21.5857864 L18.5857864,14.5857864 L15,14.5857864 C14.4477153,14.5857864 14,14.1380712 14,13.5857864 C14,13.3205699 14.1053568,13.066216 14.2928932,12.8786797 L26.8786797,0.292893219 C27.2692039,-0.0976310729 27.9023689,-0.0976310729 28.2928932,0.292893219 L40.8786797,12.8786797 C41.2692039,13.2692039 41.2692039,13.9023689 40.8786797,14.2928932 C40.6911433,14.4804296 40.4367894,14.5857864 40.1715729,14.5857864 L36.5857864,14.5857864 Z" id="形状结合" fill="#E5ECEF"></path>
                <circle id="椭圆形" fill="#F7931A" cx="55.5" cy="47.5" r="12.5"></circle>
                <rect id="矩形" fill="#FFFFFF" x="54" y="39" width="3" height="9"></rect>
                <rect id="矩形" fill="#FFFFFF" x="54" y="46" width="8" height="3"></rect>
            </g>
        </g>
    </g>
</svg>