<?xml version="1.0" encoding="UTF-8"?>
<svg width="12px" height="12px" viewBox="0 0 12 12" version="1.1" xmlns="http://www.w3.org/2000/svg" xmlns:xlink="http://www.w3.org/1999/xlink">
    <!-- Generator: Sketch 55.2 (78181) - https://sketchapp.com -->
    <title>公告</title>
    <desc>Created with Sketch.</desc>
    <g id="页面-1" stroke="none" stroke-width="1" fill="none" fill-rule="evenodd">
        <g id="首页1" transform="translate(-22.000000, -238.000000)" fill-rule="nonzero">
            <g id="公告" transform="translate(0.000000, 220.000000)">
                <g transform="translate(20.000000, 16.000000)">
                    <rect id="矩形" fill="#000000" opacity="0" x="0" y="0" width="16" height="16"></rect>
                    <path d="M9.190625,2.4578125 C9.0296875,2.3796875 8.8375,2.4 8.696875,2.509375 L4.6078125,5.703125 L2.6875,5.703125 C2.428125,5.703125 2.21875,5.9125 2.21875,6.171875 L2.21875,10.15625 C2.21875,10.415625 2.428125,10.625 2.6875,10.625 L4.6203125,10.625 L8.7140625,13.5046875 C8.79375,13.5609375 8.8890625,13.590625 8.984375,13.590625 C9.0578125,13.590625 9.1328125,13.5734375 9.2,13.5375 C9.3546875,13.45625 9.453125,13.296875 9.453125,13.121875 L9.453125,2.8796875 C9.453125,2.7 9.3515625,2.5359375 9.190625,2.4578125 Z" id="形状" fill="currentColor"></path>
                    <path d="M10.7296875,5.6828125 C10.81875,5.7625 10.93125,5.8015625 11.0421875,5.8015625 C11.171875,5.8015625 11.3,5.7484375 11.3921875,5.6453125 L12.93125,3.9203125 C13.103125,3.7265625 13.0875,3.43125 12.89375,3.2578125 C12.7,3.0859375 12.4046875,3.1015625 12.23125,3.2953125 L10.6921875,5.0203125 C10.5203125,5.2140625 10.5359375,5.509375 10.7296875,5.6828125 Z" id="路径" fill="currentColor"></path>
                    <path d="M11.3921875,10.3421875 C11.2203125,10.1484375 10.9234375,10.1328125 10.7296875,10.3046875 C10.5359375,10.4765625 10.5203125,10.7734375 10.6921875,10.9671875 L12.23125,12.6921875 C12.3234375,12.7953125 12.4515625,12.8484375 12.58125,12.8484375 C12.6921875,12.8484375 12.803125,12.809375 12.89375,12.7296875 C13.0875,12.5578125 13.103125,12.2609375 12.93125,12.0671875 L11.3921875,10.3421875 Z" id="路径" fill="currentColor"></path>
                    <path d="M13.5,7.53125 L11.5625,7.53125 C11.303125,7.53125 11.09375,7.740625 11.09375,8 C11.09375,8.259375 11.303125,8.46875 11.5625,8.46875 L13.5,8.46875 C13.759375,8.46875 13.96875,8.259375 13.96875,8 C13.96875,7.740625 13.759375,7.53125 13.5,7.53125 Z" id="路径" fill="currentColor"></path>
                </g>
            </g>
        </g>
    </g>
</svg>