<?xml version="1.0" encoding="UTF-8"?>
<svg width="12px" height="12px" viewBox="0 0 12 12" version="1.1" xmlns="http://www.w3.org/2000/svg" xmlns:xlink="http://www.w3.org/1999/xlink">
    <!-- Generator: Sketch 55.2 (78181) - https://sketchapp.com -->
    <title>？</title>
    <desc>Created with Sketch.</desc>
    <g id="榜单" stroke="none" stroke-width="1" fill="none" fill-rule="evenodd" opacity="0.600000024">
        <g id="涨跌幅榜" transform="translate(-167.000000, -147.000000)" fill-rule="nonzero">
            <g id="？" transform="translate(167.000000, 147.000000)">
                <path d="M6,0.5 C2.96233679,0.5 0.5,2.96226301 0.5,6 C0.5,9.03741171 2.96251838,11.5 6,11.5 C9.03748162,11.5 11.5,9.03741171 11.5,6 C11.5,2.96226302 9.0376632,0.5 6,0.5 Z" id="形状" stroke="#FFFFFF"></path>
                <path d="M5.98419472,9.48653212 C5.58496141,9.48653212 5.26138878,9.15370178 5.26138878,8.743356 C5.26138878,8.33301022 5.58496141,8.00017987 5.98419472,8.00017987 C6.38358794,8.00017987 6.70716055,8.33301022 6.70716055,8.743356 C6.70716055,9.15370178 6.38357194,9.48653212 5.98419472,9.48653212 Z M8.00330577,4.81597077 C7.90356539,5.00803255 7.78502177,5.17331248 7.64781878,5.3123702 C7.51061581,5.45200353 7.26411094,5.68624472 6.90876786,6.01622898 C6.8104665,6.109126 6.73167194,6.19062275 6.67252803,6.26129483 C6.6132722,6.3314073 6.56909416,6.39579564 6.54029769,6.45450783 C6.51110148,6.51262842 6.48886056,6.57134061 6.47306327,6.6294612 C6.457234,6.68815741 6.43331422,6.79074386 6.40151178,6.93779616 C6.34654105,7.24952081 6.17456166,7.4051433 5.88546166,7.4051433 C5.73527548,7.4051433 5.60876925,7.3543937 5.50631072,7.25239886 C5.40359636,7.15037203 5.35243105,6.99935442 5.35243105,6.79816283 C5.35243105,6.54681325 5.38990964,6.32854523 5.46499473,6.14446203 C5.54022373,5.95980323 5.6398202,5.79794497 5.76421586,5.65888725 C5.88859553,5.51982953 6.05616192,5.35397398 6.26702695,5.1619122 C6.45195756,4.99434581 6.58575486,4.86782359 6.66797111,4.78232956 C6.75058709,4.69685152 6.81985214,4.60166805 6.87614997,4.49681114 C6.93255972,4.39193825 6.96076459,4.27795153 6.96076459,4.15542659 C6.96076459,3.91549327 6.87469495,3.71315045 6.70289144,3.54846211 C6.53075214,3.38375778 6.30906245,3.30110981 6.03735867,3.30110981 C5.7193183,3.30110981 5.48523702,3.38431739 5.33505084,3.55073256 C5.18473675,3.71714773 5.05763892,3.96163797 4.95348555,4.28593009 C4.85518419,4.62446856 4.66879856,4.79372981 4.3942487,4.79372981 C4.23253434,4.79372981 4.09576308,4.734458 3.98460644,4.61591437 C3.87333788,4.49737075 3.81775956,4.36913769 3.81775956,4.23179081 C3.81775956,3.94683202 3.90581186,3.65843555 4.08206036,3.36607377 C4.25830886,3.07427161 4.51576631,2.83206783 4.85387308,2.64056566 C5.19185192,2.44848789 5.58651234,2.3527448 6.03734269,2.3527448 C6.4564985,2.3527448 6.82624781,2.43310631 7.14711827,2.59325373 C7.46797272,2.75340116 7.71575673,2.97168516 7.8905662,3.24695453 C8.06540766,3.52279952 8.15288435,3.82256427 8.15288435,4.14629678 C8.15288435,4.40106808 8.10303014,4.62448459 8.00330577,4.81597077 Z" id="形状结合" fill="#FFFFFF"></path>
            </g>
        </g>
    </g>
</svg>